<mxfile host="app.diagrams.net" modified="2022-01-24T19:15:54.815Z" agent="5.0 (Windows NT 10.0; Win64; x64) AppleWebKit/537.36 (KHTML, like Gecko) Chrome/97.0.4692.71 Safari/537.36" etag="xQUGCiYH9qrmuYt8yuDE" version="16.4.5" type="github">
  <diagram id="R2lEEEUBdFMjLlhIrx00" name="Page-1">
    <mxGraphModel dx="3792" dy="1160" grid="1" gridSize="10" guides="1" tooltips="1" connect="1" arrows="1" fold="1" page="1" pageScale="1" pageWidth="850" pageHeight="1100" math="0" shadow="0" extFonts="Permanent Marker^https://fonts.googleapis.com/css?family=Permanent+Marker">
      <root>
        <mxCell id="0" />
        <mxCell id="1" parent="0" />
        <mxCell id="i6ytHLpOtppgZ-BSXe9w-58" value="" style="shape=table;startSize=0;container=1;collapsible=0;childLayout=tableLayout;" vertex="1" parent="1">
          <mxGeometry x="-780" y="90" width="1610" height="650" as="geometry" />
        </mxCell>
        <mxCell id="i6ytHLpOtppgZ-BSXe9w-59" value="" style="shape=tableRow;horizontal=0;startSize=0;swimlaneHead=0;swimlaneBody=0;top=0;left=0;bottom=0;right=0;collapsible=0;dropTarget=0;fillColor=none;points=[[0,0.5],[1,0.5]];portConstraint=eastwest;" vertex="1" parent="i6ytHLpOtppgZ-BSXe9w-58">
          <mxGeometry width="1610" height="51" as="geometry" />
        </mxCell>
        <mxCell id="i6ytHLpOtppgZ-BSXe9w-60" value="PK" style="shape=partialRectangle;html=1;whiteSpace=wrap;connectable=0;overflow=hidden;fillColor=none;top=0;left=0;bottom=0;right=0;pointerEvents=1;" vertex="1" parent="i6ytHLpOtppgZ-BSXe9w-59">
          <mxGeometry width="91" height="51" as="geometry">
            <mxRectangle width="91" height="51" as="alternateBounds" />
          </mxGeometry>
        </mxCell>
        <mxCell id="i6ytHLpOtppgZ-BSXe9w-61" value="Modello&lt;br&gt;VARCHAR(100)&lt;br&gt;NOTNULL" style="shape=partialRectangle;html=1;whiteSpace=wrap;connectable=0;overflow=hidden;fillColor=none;top=0;left=0;bottom=0;right=0;pointerEvents=1;" vertex="1" parent="i6ytHLpOtppgZ-BSXe9w-59">
          <mxGeometry x="91" width="171" height="51" as="geometry">
            <mxRectangle width="171" height="51" as="alternateBounds" />
          </mxGeometry>
        </mxCell>
        <mxCell id="i6ytHLpOtppgZ-BSXe9w-62" value="Targa&lt;br&gt;VARCHAR(20)&lt;br&gt;NOTNULL&lt;br&gt;UNIQUE" style="shape=partialRectangle;html=1;whiteSpace=wrap;connectable=0;overflow=hidden;fillColor=none;top=0;left=0;bottom=0;right=0;pointerEvents=1;" vertex="1" parent="i6ytHLpOtppgZ-BSXe9w-59">
          <mxGeometry x="262" width="191" height="51" as="geometry">
            <mxRectangle width="191" height="51" as="alternateBounds" />
          </mxGeometry>
        </mxCell>
        <mxCell id="i6ytHLpOtppgZ-BSXe9w-63" value="Cilindrata&lt;br&gt;MEDIUMINT&lt;br&gt;NOTNULL" style="shape=partialRectangle;html=1;whiteSpace=wrap;connectable=0;overflow=hidden;fillColor=none;top=0;left=0;bottom=0;right=0;pointerEvents=1;" vertex="1" parent="i6ytHLpOtppgZ-BSXe9w-59">
          <mxGeometry x="453" width="181" height="51" as="geometry">
            <mxRectangle width="181" height="51" as="alternateBounds" />
          </mxGeometry>
        </mxCell>
        <mxCell id="i6ytHLpOtppgZ-BSXe9w-64" value="Colorazione&lt;br&gt;VARCHAR(40)&lt;br&gt;NULL" style="shape=partialRectangle;html=1;whiteSpace=wrap;connectable=0;overflow=hidden;fillColor=none;top=0;left=0;bottom=0;right=0;pointerEvents=1;" vertex="1" parent="i6ytHLpOtppgZ-BSXe9w-59">
          <mxGeometry x="634" width="171" height="51" as="geometry">
            <mxRectangle width="171" height="51" as="alternateBounds" />
          </mxGeometry>
        </mxCell>
        <mxCell id="i6ytHLpOtppgZ-BSXe9w-65" value="Cavalli&lt;br&gt;MEDIUMINT&lt;br&gt;NOTNULL" style="shape=partialRectangle;html=1;whiteSpace=wrap;connectable=0;overflow=hidden;fillColor=none;top=0;left=0;bottom=0;right=0;pointerEvents=1;" vertex="1" parent="i6ytHLpOtppgZ-BSXe9w-59">
          <mxGeometry x="805" width="171" height="51" as="geometry">
            <mxRectangle width="171" height="51" as="alternateBounds" />
          </mxGeometry>
        </mxCell>
        <mxCell id="i6ytHLpOtppgZ-BSXe9w-66" value="KM percorsi&lt;br&gt;MEDIUMINT&lt;br&gt;NOTNULL" style="shape=partialRectangle;html=1;whiteSpace=wrap;connectable=0;overflow=hidden;fillColor=none;top=0;left=0;bottom=0;right=0;pointerEvents=1;" vertex="1" parent="i6ytHLpOtppgZ-BSXe9w-59">
          <mxGeometry x="976" width="171" height="51" as="geometry">
            <mxRectangle width="171" height="51" as="alternateBounds" />
          </mxGeometry>
        </mxCell>
        <mxCell id="i6ytHLpOtppgZ-BSXe9w-67" value="Grandezza ruote&lt;br&gt;MEDIUMINT&lt;br&gt;NOTNULL" style="shape=partialRectangle;html=1;whiteSpace=wrap;connectable=0;overflow=hidden;fillColor=none;top=0;left=0;bottom=0;right=0;pointerEvents=1;" vertex="1" parent="i6ytHLpOtppgZ-BSXe9w-59">
          <mxGeometry x="1147" width="151" height="51" as="geometry">
            <mxRectangle width="151" height="51" as="alternateBounds" />
          </mxGeometry>
        </mxCell>
        <mxCell id="i6ytHLpOtppgZ-BSXe9w-68" value="Casa Produttrice&lt;br&gt;VARCHAR(50)&lt;br&gt;NOTNULL" style="shape=partialRectangle;html=1;whiteSpace=wrap;connectable=0;overflow=hidden;fillColor=none;top=0;left=0;bottom=0;right=0;pointerEvents=1;" vertex="1" parent="i6ytHLpOtppgZ-BSXe9w-59">
          <mxGeometry x="1298" width="172" height="51" as="geometry">
            <mxRectangle width="172" height="51" as="alternateBounds" />
          </mxGeometry>
        </mxCell>
        <mxCell id="i6ytHLpOtppgZ-BSXe9w-69" value="Prezzo Listino&lt;br&gt;MEDIUM INT&lt;br&gt;NOTNULL" style="shape=partialRectangle;html=1;whiteSpace=wrap;connectable=0;overflow=hidden;fillColor=none;top=0;left=0;bottom=0;right=0;pointerEvents=1;" vertex="1" parent="i6ytHLpOtppgZ-BSXe9w-59">
          <mxGeometry x="1470" width="140" height="51" as="geometry">
            <mxRectangle width="140" height="51" as="alternateBounds" />
          </mxGeometry>
        </mxCell>
        <mxCell id="i6ytHLpOtppgZ-BSXe9w-70" value="" style="shape=tableRow;horizontal=0;startSize=0;swimlaneHead=0;swimlaneBody=0;top=0;left=0;bottom=0;right=0;collapsible=0;dropTarget=0;fillColor=none;points=[[0,0.5],[1,0.5]];portConstraint=eastwest;" vertex="1" parent="i6ytHLpOtppgZ-BSXe9w-58">
          <mxGeometry y="51" width="1610" height="51" as="geometry" />
        </mxCell>
        <mxCell id="i6ytHLpOtppgZ-BSXe9w-71" value="1" style="shape=partialRectangle;html=1;whiteSpace=wrap;connectable=0;overflow=hidden;fillColor=none;top=0;left=0;bottom=0;right=0;pointerEvents=1;" vertex="1" parent="i6ytHLpOtppgZ-BSXe9w-70">
          <mxGeometry width="91" height="51" as="geometry">
            <mxRectangle width="91" height="51" as="alternateBounds" />
          </mxGeometry>
        </mxCell>
        <mxCell id="i6ytHLpOtppgZ-BSXe9w-72" value="" style="shape=partialRectangle;html=1;whiteSpace=wrap;connectable=0;overflow=hidden;fillColor=none;top=0;left=0;bottom=0;right=0;pointerEvents=1;" vertex="1" parent="i6ytHLpOtppgZ-BSXe9w-70">
          <mxGeometry x="91" width="171" height="51" as="geometry">
            <mxRectangle width="171" height="51" as="alternateBounds" />
          </mxGeometry>
        </mxCell>
        <mxCell id="i6ytHLpOtppgZ-BSXe9w-73" value="" style="shape=partialRectangle;html=1;whiteSpace=wrap;connectable=0;overflow=hidden;fillColor=none;top=0;left=0;bottom=0;right=0;pointerEvents=1;" vertex="1" parent="i6ytHLpOtppgZ-BSXe9w-70">
          <mxGeometry x="262" width="191" height="51" as="geometry">
            <mxRectangle width="191" height="51" as="alternateBounds" />
          </mxGeometry>
        </mxCell>
        <mxCell id="i6ytHLpOtppgZ-BSXe9w-74" value="" style="shape=partialRectangle;html=1;whiteSpace=wrap;connectable=0;overflow=hidden;fillColor=none;top=0;left=0;bottom=0;right=0;pointerEvents=1;" vertex="1" parent="i6ytHLpOtppgZ-BSXe9w-70">
          <mxGeometry x="453" width="181" height="51" as="geometry">
            <mxRectangle width="181" height="51" as="alternateBounds" />
          </mxGeometry>
        </mxCell>
        <mxCell id="i6ytHLpOtppgZ-BSXe9w-75" value="" style="shape=partialRectangle;html=1;whiteSpace=wrap;connectable=0;overflow=hidden;fillColor=none;top=0;left=0;bottom=0;right=0;pointerEvents=1;" vertex="1" parent="i6ytHLpOtppgZ-BSXe9w-70">
          <mxGeometry x="634" width="171" height="51" as="geometry">
            <mxRectangle width="171" height="51" as="alternateBounds" />
          </mxGeometry>
        </mxCell>
        <mxCell id="i6ytHLpOtppgZ-BSXe9w-76" value="" style="shape=partialRectangle;html=1;whiteSpace=wrap;connectable=0;overflow=hidden;fillColor=none;top=0;left=0;bottom=0;right=0;pointerEvents=1;" vertex="1" parent="i6ytHLpOtppgZ-BSXe9w-70">
          <mxGeometry x="805" width="171" height="51" as="geometry">
            <mxRectangle width="171" height="51" as="alternateBounds" />
          </mxGeometry>
        </mxCell>
        <mxCell id="i6ytHLpOtppgZ-BSXe9w-77" value="" style="shape=partialRectangle;html=1;whiteSpace=wrap;connectable=0;overflow=hidden;fillColor=none;top=0;left=0;bottom=0;right=0;pointerEvents=1;" vertex="1" parent="i6ytHLpOtppgZ-BSXe9w-70">
          <mxGeometry x="976" width="171" height="51" as="geometry">
            <mxRectangle width="171" height="51" as="alternateBounds" />
          </mxGeometry>
        </mxCell>
        <mxCell id="i6ytHLpOtppgZ-BSXe9w-78" value="" style="shape=partialRectangle;html=1;whiteSpace=wrap;connectable=0;overflow=hidden;fillColor=none;top=0;left=0;bottom=0;right=0;pointerEvents=1;" vertex="1" parent="i6ytHLpOtppgZ-BSXe9w-70">
          <mxGeometry x="1147" width="151" height="51" as="geometry">
            <mxRectangle width="151" height="51" as="alternateBounds" />
          </mxGeometry>
        </mxCell>
        <mxCell id="i6ytHLpOtppgZ-BSXe9w-79" value="" style="shape=partialRectangle;html=1;whiteSpace=wrap;connectable=0;overflow=hidden;fillColor=none;top=0;left=0;bottom=0;right=0;pointerEvents=1;" vertex="1" parent="i6ytHLpOtppgZ-BSXe9w-70">
          <mxGeometry x="1298" width="172" height="51" as="geometry">
            <mxRectangle width="172" height="51" as="alternateBounds" />
          </mxGeometry>
        </mxCell>
        <mxCell id="i6ytHLpOtppgZ-BSXe9w-80" value="" style="shape=partialRectangle;html=1;whiteSpace=wrap;connectable=0;overflow=hidden;fillColor=none;top=0;left=0;bottom=0;right=0;pointerEvents=1;" vertex="1" parent="i6ytHLpOtppgZ-BSXe9w-70">
          <mxGeometry x="1470" width="140" height="51" as="geometry">
            <mxRectangle width="140" height="51" as="alternateBounds" />
          </mxGeometry>
        </mxCell>
        <mxCell id="i6ytHLpOtppgZ-BSXe9w-81" value="" style="shape=tableRow;horizontal=0;startSize=0;swimlaneHead=0;swimlaneBody=0;top=0;left=0;bottom=0;right=0;collapsible=0;dropTarget=0;fillColor=none;points=[[0,0.5],[1,0.5]];portConstraint=eastwest;" vertex="1" parent="i6ytHLpOtppgZ-BSXe9w-58">
          <mxGeometry y="102" width="1610" height="50" as="geometry" />
        </mxCell>
        <mxCell id="i6ytHLpOtppgZ-BSXe9w-82" value="2" style="shape=partialRectangle;html=1;whiteSpace=wrap;connectable=0;overflow=hidden;fillColor=none;top=0;left=0;bottom=0;right=0;pointerEvents=1;" vertex="1" parent="i6ytHLpOtppgZ-BSXe9w-81">
          <mxGeometry width="91" height="50" as="geometry">
            <mxRectangle width="91" height="50" as="alternateBounds" />
          </mxGeometry>
        </mxCell>
        <mxCell id="i6ytHLpOtppgZ-BSXe9w-83" value="" style="shape=partialRectangle;html=1;whiteSpace=wrap;connectable=0;overflow=hidden;fillColor=none;top=0;left=0;bottom=0;right=0;pointerEvents=1;" vertex="1" parent="i6ytHLpOtppgZ-BSXe9w-81">
          <mxGeometry x="91" width="171" height="50" as="geometry">
            <mxRectangle width="171" height="50" as="alternateBounds" />
          </mxGeometry>
        </mxCell>
        <mxCell id="i6ytHLpOtppgZ-BSXe9w-84" value="" style="shape=partialRectangle;html=1;whiteSpace=wrap;connectable=0;overflow=hidden;fillColor=none;top=0;left=0;bottom=0;right=0;pointerEvents=1;" vertex="1" parent="i6ytHLpOtppgZ-BSXe9w-81">
          <mxGeometry x="262" width="191" height="50" as="geometry">
            <mxRectangle width="191" height="50" as="alternateBounds" />
          </mxGeometry>
        </mxCell>
        <mxCell id="i6ytHLpOtppgZ-BSXe9w-85" value="" style="shape=partialRectangle;html=1;whiteSpace=wrap;connectable=0;overflow=hidden;fillColor=none;top=0;left=0;bottom=0;right=0;pointerEvents=1;" vertex="1" parent="i6ytHLpOtppgZ-BSXe9w-81">
          <mxGeometry x="453" width="181" height="50" as="geometry">
            <mxRectangle width="181" height="50" as="alternateBounds" />
          </mxGeometry>
        </mxCell>
        <mxCell id="i6ytHLpOtppgZ-BSXe9w-86" value="" style="shape=partialRectangle;html=1;whiteSpace=wrap;connectable=0;overflow=hidden;fillColor=none;top=0;left=0;bottom=0;right=0;pointerEvents=1;" vertex="1" parent="i6ytHLpOtppgZ-BSXe9w-81">
          <mxGeometry x="634" width="171" height="50" as="geometry">
            <mxRectangle width="171" height="50" as="alternateBounds" />
          </mxGeometry>
        </mxCell>
        <mxCell id="i6ytHLpOtppgZ-BSXe9w-87" value="" style="shape=partialRectangle;html=1;whiteSpace=wrap;connectable=0;overflow=hidden;fillColor=none;top=0;left=0;bottom=0;right=0;pointerEvents=1;" vertex="1" parent="i6ytHLpOtppgZ-BSXe9w-81">
          <mxGeometry x="805" width="171" height="50" as="geometry">
            <mxRectangle width="171" height="50" as="alternateBounds" />
          </mxGeometry>
        </mxCell>
        <mxCell id="i6ytHLpOtppgZ-BSXe9w-88" value="" style="shape=partialRectangle;html=1;whiteSpace=wrap;connectable=0;overflow=hidden;fillColor=none;top=0;left=0;bottom=0;right=0;pointerEvents=1;" vertex="1" parent="i6ytHLpOtppgZ-BSXe9w-81">
          <mxGeometry x="976" width="171" height="50" as="geometry">
            <mxRectangle width="171" height="50" as="alternateBounds" />
          </mxGeometry>
        </mxCell>
        <mxCell id="i6ytHLpOtppgZ-BSXe9w-89" value="" style="shape=partialRectangle;html=1;whiteSpace=wrap;connectable=0;overflow=hidden;fillColor=none;top=0;left=0;bottom=0;right=0;pointerEvents=1;" vertex="1" parent="i6ytHLpOtppgZ-BSXe9w-81">
          <mxGeometry x="1147" width="151" height="50" as="geometry">
            <mxRectangle width="151" height="50" as="alternateBounds" />
          </mxGeometry>
        </mxCell>
        <mxCell id="i6ytHLpOtppgZ-BSXe9w-90" value="" style="shape=partialRectangle;html=1;whiteSpace=wrap;connectable=0;overflow=hidden;fillColor=none;top=0;left=0;bottom=0;right=0;pointerEvents=1;" vertex="1" parent="i6ytHLpOtppgZ-BSXe9w-81">
          <mxGeometry x="1298" width="172" height="50" as="geometry">
            <mxRectangle width="172" height="50" as="alternateBounds" />
          </mxGeometry>
        </mxCell>
        <mxCell id="i6ytHLpOtppgZ-BSXe9w-91" value="" style="shape=partialRectangle;html=1;whiteSpace=wrap;connectable=0;overflow=hidden;fillColor=none;top=0;left=0;bottom=0;right=0;pointerEvents=1;" vertex="1" parent="i6ytHLpOtppgZ-BSXe9w-81">
          <mxGeometry x="1470" width="140" height="50" as="geometry">
            <mxRectangle width="140" height="50" as="alternateBounds" />
          </mxGeometry>
        </mxCell>
        <mxCell id="i6ytHLpOtppgZ-BSXe9w-92" value="" style="shape=tableRow;horizontal=0;startSize=0;swimlaneHead=0;swimlaneBody=0;top=0;left=0;bottom=0;right=0;collapsible=0;dropTarget=0;fillColor=none;points=[[0,0.5],[1,0.5]];portConstraint=eastwest;" vertex="1" parent="i6ytHLpOtppgZ-BSXe9w-58">
          <mxGeometry y="152" width="1610" height="50" as="geometry" />
        </mxCell>
        <mxCell id="i6ytHLpOtppgZ-BSXe9w-93" value="3" style="shape=partialRectangle;html=1;whiteSpace=wrap;connectable=0;overflow=hidden;fillColor=none;top=0;left=0;bottom=0;right=0;pointerEvents=1;" vertex="1" parent="i6ytHLpOtppgZ-BSXe9w-92">
          <mxGeometry width="91" height="50" as="geometry">
            <mxRectangle width="91" height="50" as="alternateBounds" />
          </mxGeometry>
        </mxCell>
        <mxCell id="i6ytHLpOtppgZ-BSXe9w-94" value="" style="shape=partialRectangle;html=1;whiteSpace=wrap;connectable=0;overflow=hidden;fillColor=none;top=0;left=0;bottom=0;right=0;pointerEvents=1;" vertex="1" parent="i6ytHLpOtppgZ-BSXe9w-92">
          <mxGeometry x="91" width="171" height="50" as="geometry">
            <mxRectangle width="171" height="50" as="alternateBounds" />
          </mxGeometry>
        </mxCell>
        <mxCell id="i6ytHLpOtppgZ-BSXe9w-95" value="" style="shape=partialRectangle;html=1;whiteSpace=wrap;connectable=0;overflow=hidden;fillColor=none;top=0;left=0;bottom=0;right=0;pointerEvents=1;" vertex="1" parent="i6ytHLpOtppgZ-BSXe9w-92">
          <mxGeometry x="262" width="191" height="50" as="geometry">
            <mxRectangle width="191" height="50" as="alternateBounds" />
          </mxGeometry>
        </mxCell>
        <mxCell id="i6ytHLpOtppgZ-BSXe9w-96" value="" style="shape=partialRectangle;html=1;whiteSpace=wrap;connectable=0;overflow=hidden;fillColor=none;top=0;left=0;bottom=0;right=0;pointerEvents=1;" vertex="1" parent="i6ytHLpOtppgZ-BSXe9w-92">
          <mxGeometry x="453" width="181" height="50" as="geometry">
            <mxRectangle width="181" height="50" as="alternateBounds" />
          </mxGeometry>
        </mxCell>
        <mxCell id="i6ytHLpOtppgZ-BSXe9w-97" value="" style="shape=partialRectangle;html=1;whiteSpace=wrap;connectable=0;overflow=hidden;fillColor=none;top=0;left=0;bottom=0;right=0;pointerEvents=1;" vertex="1" parent="i6ytHLpOtppgZ-BSXe9w-92">
          <mxGeometry x="634" width="171" height="50" as="geometry">
            <mxRectangle width="171" height="50" as="alternateBounds" />
          </mxGeometry>
        </mxCell>
        <mxCell id="i6ytHLpOtppgZ-BSXe9w-98" value="" style="shape=partialRectangle;html=1;whiteSpace=wrap;connectable=0;overflow=hidden;fillColor=none;top=0;left=0;bottom=0;right=0;pointerEvents=1;" vertex="1" parent="i6ytHLpOtppgZ-BSXe9w-92">
          <mxGeometry x="805" width="171" height="50" as="geometry">
            <mxRectangle width="171" height="50" as="alternateBounds" />
          </mxGeometry>
        </mxCell>
        <mxCell id="i6ytHLpOtppgZ-BSXe9w-99" value="" style="shape=partialRectangle;html=1;whiteSpace=wrap;connectable=0;overflow=hidden;fillColor=none;top=0;left=0;bottom=0;right=0;pointerEvents=1;" vertex="1" parent="i6ytHLpOtppgZ-BSXe9w-92">
          <mxGeometry x="976" width="171" height="50" as="geometry">
            <mxRectangle width="171" height="50" as="alternateBounds" />
          </mxGeometry>
        </mxCell>
        <mxCell id="i6ytHLpOtppgZ-BSXe9w-100" value="" style="shape=partialRectangle;html=1;whiteSpace=wrap;connectable=0;overflow=hidden;fillColor=none;top=0;left=0;bottom=0;right=0;pointerEvents=1;" vertex="1" parent="i6ytHLpOtppgZ-BSXe9w-92">
          <mxGeometry x="1147" width="151" height="50" as="geometry">
            <mxRectangle width="151" height="50" as="alternateBounds" />
          </mxGeometry>
        </mxCell>
        <mxCell id="i6ytHLpOtppgZ-BSXe9w-101" value="" style="shape=partialRectangle;html=1;whiteSpace=wrap;connectable=0;overflow=hidden;fillColor=none;top=0;left=0;bottom=0;right=0;pointerEvents=1;" vertex="1" parent="i6ytHLpOtppgZ-BSXe9w-92">
          <mxGeometry x="1298" width="172" height="50" as="geometry">
            <mxRectangle width="172" height="50" as="alternateBounds" />
          </mxGeometry>
        </mxCell>
        <mxCell id="i6ytHLpOtppgZ-BSXe9w-102" value="" style="shape=partialRectangle;html=1;whiteSpace=wrap;connectable=0;overflow=hidden;fillColor=none;top=0;left=0;bottom=0;right=0;pointerEvents=1;" vertex="1" parent="i6ytHLpOtppgZ-BSXe9w-92">
          <mxGeometry x="1470" width="140" height="50" as="geometry">
            <mxRectangle width="140" height="50" as="alternateBounds" />
          </mxGeometry>
        </mxCell>
        <mxCell id="i6ytHLpOtppgZ-BSXe9w-103" value="" style="shape=tableRow;horizontal=0;startSize=0;swimlaneHead=0;swimlaneBody=0;top=0;left=0;bottom=0;right=0;collapsible=0;dropTarget=0;fillColor=none;points=[[0,0.5],[1,0.5]];portConstraint=eastwest;" vertex="1" parent="i6ytHLpOtppgZ-BSXe9w-58">
          <mxGeometry y="202" width="1610" height="64" as="geometry" />
        </mxCell>
        <mxCell id="i6ytHLpOtppgZ-BSXe9w-104" value="4" style="shape=partialRectangle;html=1;whiteSpace=wrap;connectable=0;overflow=hidden;fillColor=none;top=0;left=0;bottom=0;right=0;pointerEvents=1;" vertex="1" parent="i6ytHLpOtppgZ-BSXe9w-103">
          <mxGeometry width="91" height="64" as="geometry">
            <mxRectangle width="91" height="64" as="alternateBounds" />
          </mxGeometry>
        </mxCell>
        <mxCell id="i6ytHLpOtppgZ-BSXe9w-105" value="" style="shape=partialRectangle;html=1;whiteSpace=wrap;connectable=0;overflow=hidden;fillColor=none;top=0;left=0;bottom=0;right=0;pointerEvents=1;" vertex="1" parent="i6ytHLpOtppgZ-BSXe9w-103">
          <mxGeometry x="91" width="171" height="64" as="geometry">
            <mxRectangle width="171" height="64" as="alternateBounds" />
          </mxGeometry>
        </mxCell>
        <mxCell id="i6ytHLpOtppgZ-BSXe9w-106" value="" style="shape=partialRectangle;html=1;whiteSpace=wrap;connectable=0;overflow=hidden;fillColor=none;top=0;left=0;bottom=0;right=0;pointerEvents=1;" vertex="1" parent="i6ytHLpOtppgZ-BSXe9w-103">
          <mxGeometry x="262" width="191" height="64" as="geometry">
            <mxRectangle width="191" height="64" as="alternateBounds" />
          </mxGeometry>
        </mxCell>
        <mxCell id="i6ytHLpOtppgZ-BSXe9w-107" value="" style="shape=partialRectangle;html=1;whiteSpace=wrap;connectable=0;overflow=hidden;fillColor=none;top=0;left=0;bottom=0;right=0;pointerEvents=1;" vertex="1" parent="i6ytHLpOtppgZ-BSXe9w-103">
          <mxGeometry x="453" width="181" height="64" as="geometry">
            <mxRectangle width="181" height="64" as="alternateBounds" />
          </mxGeometry>
        </mxCell>
        <mxCell id="i6ytHLpOtppgZ-BSXe9w-108" value="" style="shape=partialRectangle;html=1;whiteSpace=wrap;connectable=0;overflow=hidden;fillColor=none;top=0;left=0;bottom=0;right=0;pointerEvents=1;" vertex="1" parent="i6ytHLpOtppgZ-BSXe9w-103">
          <mxGeometry x="634" width="171" height="64" as="geometry">
            <mxRectangle width="171" height="64" as="alternateBounds" />
          </mxGeometry>
        </mxCell>
        <mxCell id="i6ytHLpOtppgZ-BSXe9w-109" value="" style="shape=partialRectangle;html=1;whiteSpace=wrap;connectable=0;overflow=hidden;fillColor=none;top=0;left=0;bottom=0;right=0;pointerEvents=1;" vertex="1" parent="i6ytHLpOtppgZ-BSXe9w-103">
          <mxGeometry x="805" width="171" height="64" as="geometry">
            <mxRectangle width="171" height="64" as="alternateBounds" />
          </mxGeometry>
        </mxCell>
        <mxCell id="i6ytHLpOtppgZ-BSXe9w-110" value="" style="shape=partialRectangle;html=1;whiteSpace=wrap;connectable=0;overflow=hidden;fillColor=none;top=0;left=0;bottom=0;right=0;pointerEvents=1;" vertex="1" parent="i6ytHLpOtppgZ-BSXe9w-103">
          <mxGeometry x="976" width="171" height="64" as="geometry">
            <mxRectangle width="171" height="64" as="alternateBounds" />
          </mxGeometry>
        </mxCell>
        <mxCell id="i6ytHLpOtppgZ-BSXe9w-111" value="" style="shape=partialRectangle;html=1;whiteSpace=wrap;connectable=0;overflow=hidden;fillColor=none;top=0;left=0;bottom=0;right=0;pointerEvents=1;" vertex="1" parent="i6ytHLpOtppgZ-BSXe9w-103">
          <mxGeometry x="1147" width="151" height="64" as="geometry">
            <mxRectangle width="151" height="64" as="alternateBounds" />
          </mxGeometry>
        </mxCell>
        <mxCell id="i6ytHLpOtppgZ-BSXe9w-112" value="" style="shape=partialRectangle;html=1;whiteSpace=wrap;connectable=0;overflow=hidden;fillColor=none;top=0;left=0;bottom=0;right=0;pointerEvents=1;" vertex="1" parent="i6ytHLpOtppgZ-BSXe9w-103">
          <mxGeometry x="1298" width="172" height="64" as="geometry">
            <mxRectangle width="172" height="64" as="alternateBounds" />
          </mxGeometry>
        </mxCell>
        <mxCell id="i6ytHLpOtppgZ-BSXe9w-113" value="" style="shape=partialRectangle;html=1;whiteSpace=wrap;connectable=0;overflow=hidden;fillColor=none;top=0;left=0;bottom=0;right=0;pointerEvents=1;" vertex="1" parent="i6ytHLpOtppgZ-BSXe9w-103">
          <mxGeometry x="1470" width="140" height="64" as="geometry">
            <mxRectangle width="140" height="64" as="alternateBounds" />
          </mxGeometry>
        </mxCell>
        <mxCell id="i6ytHLpOtppgZ-BSXe9w-114" value="" style="shape=tableRow;horizontal=0;startSize=0;swimlaneHead=0;swimlaneBody=0;top=0;left=0;bottom=0;right=0;collapsible=0;dropTarget=0;fillColor=none;points=[[0,0.5],[1,0.5]];portConstraint=eastwest;" vertex="1" parent="i6ytHLpOtppgZ-BSXe9w-58">
          <mxGeometry y="266" width="1610" height="50" as="geometry" />
        </mxCell>
        <mxCell id="i6ytHLpOtppgZ-BSXe9w-115" value="5" style="shape=partialRectangle;html=1;whiteSpace=wrap;connectable=0;overflow=hidden;fillColor=none;top=0;left=0;bottom=0;right=0;pointerEvents=1;" vertex="1" parent="i6ytHLpOtppgZ-BSXe9w-114">
          <mxGeometry width="91" height="50" as="geometry">
            <mxRectangle width="91" height="50" as="alternateBounds" />
          </mxGeometry>
        </mxCell>
        <mxCell id="i6ytHLpOtppgZ-BSXe9w-116" value="" style="shape=partialRectangle;html=1;whiteSpace=wrap;connectable=0;overflow=hidden;fillColor=none;top=0;left=0;bottom=0;right=0;pointerEvents=1;" vertex="1" parent="i6ytHLpOtppgZ-BSXe9w-114">
          <mxGeometry x="91" width="171" height="50" as="geometry">
            <mxRectangle width="171" height="50" as="alternateBounds" />
          </mxGeometry>
        </mxCell>
        <mxCell id="i6ytHLpOtppgZ-BSXe9w-117" value="" style="shape=partialRectangle;html=1;whiteSpace=wrap;connectable=0;overflow=hidden;fillColor=none;top=0;left=0;bottom=0;right=0;pointerEvents=1;" vertex="1" parent="i6ytHLpOtppgZ-BSXe9w-114">
          <mxGeometry x="262" width="191" height="50" as="geometry">
            <mxRectangle width="191" height="50" as="alternateBounds" />
          </mxGeometry>
        </mxCell>
        <mxCell id="i6ytHLpOtppgZ-BSXe9w-118" value="" style="shape=partialRectangle;html=1;whiteSpace=wrap;connectable=0;overflow=hidden;fillColor=none;top=0;left=0;bottom=0;right=0;pointerEvents=1;" vertex="1" parent="i6ytHLpOtppgZ-BSXe9w-114">
          <mxGeometry x="453" width="181" height="50" as="geometry">
            <mxRectangle width="181" height="50" as="alternateBounds" />
          </mxGeometry>
        </mxCell>
        <mxCell id="i6ytHLpOtppgZ-BSXe9w-119" value="" style="shape=partialRectangle;html=1;whiteSpace=wrap;connectable=0;overflow=hidden;fillColor=none;top=0;left=0;bottom=0;right=0;pointerEvents=1;" vertex="1" parent="i6ytHLpOtppgZ-BSXe9w-114">
          <mxGeometry x="634" width="171" height="50" as="geometry">
            <mxRectangle width="171" height="50" as="alternateBounds" />
          </mxGeometry>
        </mxCell>
        <mxCell id="i6ytHLpOtppgZ-BSXe9w-120" value="" style="shape=partialRectangle;html=1;whiteSpace=wrap;connectable=0;overflow=hidden;fillColor=none;top=0;left=0;bottom=0;right=0;pointerEvents=1;" vertex="1" parent="i6ytHLpOtppgZ-BSXe9w-114">
          <mxGeometry x="805" width="171" height="50" as="geometry">
            <mxRectangle width="171" height="50" as="alternateBounds" />
          </mxGeometry>
        </mxCell>
        <mxCell id="i6ytHLpOtppgZ-BSXe9w-121" value="" style="shape=partialRectangle;html=1;whiteSpace=wrap;connectable=0;overflow=hidden;fillColor=none;top=0;left=0;bottom=0;right=0;pointerEvents=1;" vertex="1" parent="i6ytHLpOtppgZ-BSXe9w-114">
          <mxGeometry x="976" width="171" height="50" as="geometry">
            <mxRectangle width="171" height="50" as="alternateBounds" />
          </mxGeometry>
        </mxCell>
        <mxCell id="i6ytHLpOtppgZ-BSXe9w-122" value="" style="shape=partialRectangle;html=1;whiteSpace=wrap;connectable=0;overflow=hidden;fillColor=none;top=0;left=0;bottom=0;right=0;pointerEvents=1;" vertex="1" parent="i6ytHLpOtppgZ-BSXe9w-114">
          <mxGeometry x="1147" width="151" height="50" as="geometry">
            <mxRectangle width="151" height="50" as="alternateBounds" />
          </mxGeometry>
        </mxCell>
        <mxCell id="i6ytHLpOtppgZ-BSXe9w-123" value="" style="shape=partialRectangle;html=1;whiteSpace=wrap;connectable=0;overflow=hidden;fillColor=none;top=0;left=0;bottom=0;right=0;pointerEvents=1;" vertex="1" parent="i6ytHLpOtppgZ-BSXe9w-114">
          <mxGeometry x="1298" width="172" height="50" as="geometry">
            <mxRectangle width="172" height="50" as="alternateBounds" />
          </mxGeometry>
        </mxCell>
        <mxCell id="i6ytHLpOtppgZ-BSXe9w-124" value="" style="shape=partialRectangle;html=1;whiteSpace=wrap;connectable=0;overflow=hidden;fillColor=none;top=0;left=0;bottom=0;right=0;pointerEvents=1;" vertex="1" parent="i6ytHLpOtppgZ-BSXe9w-114">
          <mxGeometry x="1470" width="140" height="50" as="geometry">
            <mxRectangle width="140" height="50" as="alternateBounds" />
          </mxGeometry>
        </mxCell>
        <mxCell id="i6ytHLpOtppgZ-BSXe9w-125" value="" style="shape=tableRow;horizontal=0;startSize=0;swimlaneHead=0;swimlaneBody=0;top=0;left=0;bottom=0;right=0;collapsible=0;dropTarget=0;fillColor=none;points=[[0,0.5],[1,0.5]];portConstraint=eastwest;" vertex="1" parent="i6ytHLpOtppgZ-BSXe9w-58">
          <mxGeometry y="316" width="1610" height="50" as="geometry" />
        </mxCell>
        <mxCell id="i6ytHLpOtppgZ-BSXe9w-126" value="6" style="shape=partialRectangle;html=1;whiteSpace=wrap;connectable=0;overflow=hidden;fillColor=none;top=0;left=0;bottom=0;right=0;pointerEvents=1;" vertex="1" parent="i6ytHLpOtppgZ-BSXe9w-125">
          <mxGeometry width="91" height="50" as="geometry">
            <mxRectangle width="91" height="50" as="alternateBounds" />
          </mxGeometry>
        </mxCell>
        <mxCell id="i6ytHLpOtppgZ-BSXe9w-127" value="" style="shape=partialRectangle;html=1;whiteSpace=wrap;connectable=0;overflow=hidden;fillColor=none;top=0;left=0;bottom=0;right=0;pointerEvents=1;" vertex="1" parent="i6ytHLpOtppgZ-BSXe9w-125">
          <mxGeometry x="91" width="171" height="50" as="geometry">
            <mxRectangle width="171" height="50" as="alternateBounds" />
          </mxGeometry>
        </mxCell>
        <mxCell id="i6ytHLpOtppgZ-BSXe9w-128" value="" style="shape=partialRectangle;html=1;whiteSpace=wrap;connectable=0;overflow=hidden;fillColor=none;top=0;left=0;bottom=0;right=0;pointerEvents=1;" vertex="1" parent="i6ytHLpOtppgZ-BSXe9w-125">
          <mxGeometry x="262" width="191" height="50" as="geometry">
            <mxRectangle width="191" height="50" as="alternateBounds" />
          </mxGeometry>
        </mxCell>
        <mxCell id="i6ytHLpOtppgZ-BSXe9w-129" value="" style="shape=partialRectangle;html=1;whiteSpace=wrap;connectable=0;overflow=hidden;fillColor=none;top=0;left=0;bottom=0;right=0;pointerEvents=1;" vertex="1" parent="i6ytHLpOtppgZ-BSXe9w-125">
          <mxGeometry x="453" width="181" height="50" as="geometry">
            <mxRectangle width="181" height="50" as="alternateBounds" />
          </mxGeometry>
        </mxCell>
        <mxCell id="i6ytHLpOtppgZ-BSXe9w-130" value="" style="shape=partialRectangle;html=1;whiteSpace=wrap;connectable=0;overflow=hidden;fillColor=none;top=0;left=0;bottom=0;right=0;pointerEvents=1;" vertex="1" parent="i6ytHLpOtppgZ-BSXe9w-125">
          <mxGeometry x="634" width="171" height="50" as="geometry">
            <mxRectangle width="171" height="50" as="alternateBounds" />
          </mxGeometry>
        </mxCell>
        <mxCell id="i6ytHLpOtppgZ-BSXe9w-131" value="" style="shape=partialRectangle;html=1;whiteSpace=wrap;connectable=0;overflow=hidden;fillColor=none;top=0;left=0;bottom=0;right=0;pointerEvents=1;" vertex="1" parent="i6ytHLpOtppgZ-BSXe9w-125">
          <mxGeometry x="805" width="171" height="50" as="geometry">
            <mxRectangle width="171" height="50" as="alternateBounds" />
          </mxGeometry>
        </mxCell>
        <mxCell id="i6ytHLpOtppgZ-BSXe9w-132" value="" style="shape=partialRectangle;html=1;whiteSpace=wrap;connectable=0;overflow=hidden;fillColor=none;top=0;left=0;bottom=0;right=0;pointerEvents=1;" vertex="1" parent="i6ytHLpOtppgZ-BSXe9w-125">
          <mxGeometry x="976" width="171" height="50" as="geometry">
            <mxRectangle width="171" height="50" as="alternateBounds" />
          </mxGeometry>
        </mxCell>
        <mxCell id="i6ytHLpOtppgZ-BSXe9w-133" value="" style="shape=partialRectangle;html=1;whiteSpace=wrap;connectable=0;overflow=hidden;fillColor=none;top=0;left=0;bottom=0;right=0;pointerEvents=1;" vertex="1" parent="i6ytHLpOtppgZ-BSXe9w-125">
          <mxGeometry x="1147" width="151" height="50" as="geometry">
            <mxRectangle width="151" height="50" as="alternateBounds" />
          </mxGeometry>
        </mxCell>
        <mxCell id="i6ytHLpOtppgZ-BSXe9w-134" value="" style="shape=partialRectangle;html=1;whiteSpace=wrap;connectable=0;overflow=hidden;fillColor=none;top=0;left=0;bottom=0;right=0;pointerEvents=1;" vertex="1" parent="i6ytHLpOtppgZ-BSXe9w-125">
          <mxGeometry x="1298" width="172" height="50" as="geometry">
            <mxRectangle width="172" height="50" as="alternateBounds" />
          </mxGeometry>
        </mxCell>
        <mxCell id="i6ytHLpOtppgZ-BSXe9w-135" value="" style="shape=partialRectangle;html=1;whiteSpace=wrap;connectable=0;overflow=hidden;fillColor=none;top=0;left=0;bottom=0;right=0;pointerEvents=1;" vertex="1" parent="i6ytHLpOtppgZ-BSXe9w-125">
          <mxGeometry x="1470" width="140" height="50" as="geometry">
            <mxRectangle width="140" height="50" as="alternateBounds" />
          </mxGeometry>
        </mxCell>
        <mxCell id="i6ytHLpOtppgZ-BSXe9w-136" value="" style="shape=tableRow;horizontal=0;startSize=0;swimlaneHead=0;swimlaneBody=0;top=0;left=0;bottom=0;right=0;collapsible=0;dropTarget=0;fillColor=none;points=[[0,0.5],[1,0.5]];portConstraint=eastwest;" vertex="1" parent="i6ytHLpOtppgZ-BSXe9w-58">
          <mxGeometry y="366" width="1610" height="50" as="geometry" />
        </mxCell>
        <mxCell id="i6ytHLpOtppgZ-BSXe9w-137" value="7" style="shape=partialRectangle;html=1;whiteSpace=wrap;connectable=0;overflow=hidden;fillColor=none;top=0;left=0;bottom=0;right=0;pointerEvents=1;" vertex="1" parent="i6ytHLpOtppgZ-BSXe9w-136">
          <mxGeometry width="91" height="50" as="geometry">
            <mxRectangle width="91" height="50" as="alternateBounds" />
          </mxGeometry>
        </mxCell>
        <mxCell id="i6ytHLpOtppgZ-BSXe9w-138" value="" style="shape=partialRectangle;html=1;whiteSpace=wrap;connectable=0;overflow=hidden;fillColor=none;top=0;left=0;bottom=0;right=0;pointerEvents=1;" vertex="1" parent="i6ytHLpOtppgZ-BSXe9w-136">
          <mxGeometry x="91" width="171" height="50" as="geometry">
            <mxRectangle width="171" height="50" as="alternateBounds" />
          </mxGeometry>
        </mxCell>
        <mxCell id="i6ytHLpOtppgZ-BSXe9w-139" value="" style="shape=partialRectangle;html=1;whiteSpace=wrap;connectable=0;overflow=hidden;fillColor=none;top=0;left=0;bottom=0;right=0;pointerEvents=1;" vertex="1" parent="i6ytHLpOtppgZ-BSXe9w-136">
          <mxGeometry x="262" width="191" height="50" as="geometry">
            <mxRectangle width="191" height="50" as="alternateBounds" />
          </mxGeometry>
        </mxCell>
        <mxCell id="i6ytHLpOtppgZ-BSXe9w-140" value="" style="shape=partialRectangle;html=1;whiteSpace=wrap;connectable=0;overflow=hidden;fillColor=none;top=0;left=0;bottom=0;right=0;pointerEvents=1;" vertex="1" parent="i6ytHLpOtppgZ-BSXe9w-136">
          <mxGeometry x="453" width="181" height="50" as="geometry">
            <mxRectangle width="181" height="50" as="alternateBounds" />
          </mxGeometry>
        </mxCell>
        <mxCell id="i6ytHLpOtppgZ-BSXe9w-141" value="" style="shape=partialRectangle;html=1;whiteSpace=wrap;connectable=0;overflow=hidden;fillColor=none;top=0;left=0;bottom=0;right=0;pointerEvents=1;" vertex="1" parent="i6ytHLpOtppgZ-BSXe9w-136">
          <mxGeometry x="634" width="171" height="50" as="geometry">
            <mxRectangle width="171" height="50" as="alternateBounds" />
          </mxGeometry>
        </mxCell>
        <mxCell id="i6ytHLpOtppgZ-BSXe9w-142" value="" style="shape=partialRectangle;html=1;whiteSpace=wrap;connectable=0;overflow=hidden;fillColor=none;top=0;left=0;bottom=0;right=0;pointerEvents=1;" vertex="1" parent="i6ytHLpOtppgZ-BSXe9w-136">
          <mxGeometry x="805" width="171" height="50" as="geometry">
            <mxRectangle width="171" height="50" as="alternateBounds" />
          </mxGeometry>
        </mxCell>
        <mxCell id="i6ytHLpOtppgZ-BSXe9w-143" value="" style="shape=partialRectangle;html=1;whiteSpace=wrap;connectable=0;overflow=hidden;fillColor=none;top=0;left=0;bottom=0;right=0;pointerEvents=1;" vertex="1" parent="i6ytHLpOtppgZ-BSXe9w-136">
          <mxGeometry x="976" width="171" height="50" as="geometry">
            <mxRectangle width="171" height="50" as="alternateBounds" />
          </mxGeometry>
        </mxCell>
        <mxCell id="i6ytHLpOtppgZ-BSXe9w-144" value="" style="shape=partialRectangle;html=1;whiteSpace=wrap;connectable=0;overflow=hidden;fillColor=none;top=0;left=0;bottom=0;right=0;pointerEvents=1;" vertex="1" parent="i6ytHLpOtppgZ-BSXe9w-136">
          <mxGeometry x="1147" width="151" height="50" as="geometry">
            <mxRectangle width="151" height="50" as="alternateBounds" />
          </mxGeometry>
        </mxCell>
        <mxCell id="i6ytHLpOtppgZ-BSXe9w-145" value="" style="shape=partialRectangle;html=1;whiteSpace=wrap;connectable=0;overflow=hidden;fillColor=none;top=0;left=0;bottom=0;right=0;pointerEvents=1;" vertex="1" parent="i6ytHLpOtppgZ-BSXe9w-136">
          <mxGeometry x="1298" width="172" height="50" as="geometry">
            <mxRectangle width="172" height="50" as="alternateBounds" />
          </mxGeometry>
        </mxCell>
        <mxCell id="i6ytHLpOtppgZ-BSXe9w-146" value="" style="shape=partialRectangle;html=1;whiteSpace=wrap;connectable=0;overflow=hidden;fillColor=none;top=0;left=0;bottom=0;right=0;pointerEvents=1;" vertex="1" parent="i6ytHLpOtppgZ-BSXe9w-136">
          <mxGeometry x="1470" width="140" height="50" as="geometry">
            <mxRectangle width="140" height="50" as="alternateBounds" />
          </mxGeometry>
        </mxCell>
        <mxCell id="i6ytHLpOtppgZ-BSXe9w-147" value="" style="shape=tableRow;horizontal=0;startSize=0;swimlaneHead=0;swimlaneBody=0;top=0;left=0;bottom=0;right=0;collapsible=0;dropTarget=0;fillColor=none;points=[[0,0.5],[1,0.5]];portConstraint=eastwest;" vertex="1" parent="i6ytHLpOtppgZ-BSXe9w-58">
          <mxGeometry y="416" width="1610" height="51" as="geometry" />
        </mxCell>
        <mxCell id="i6ytHLpOtppgZ-BSXe9w-148" value="8" style="shape=partialRectangle;html=1;whiteSpace=wrap;connectable=0;overflow=hidden;fillColor=none;top=0;left=0;bottom=0;right=0;pointerEvents=1;" vertex="1" parent="i6ytHLpOtppgZ-BSXe9w-147">
          <mxGeometry width="91" height="51" as="geometry">
            <mxRectangle width="91" height="51" as="alternateBounds" />
          </mxGeometry>
        </mxCell>
        <mxCell id="i6ytHLpOtppgZ-BSXe9w-149" value="" style="shape=partialRectangle;html=1;whiteSpace=wrap;connectable=0;overflow=hidden;fillColor=none;top=0;left=0;bottom=0;right=0;pointerEvents=1;" vertex="1" parent="i6ytHLpOtppgZ-BSXe9w-147">
          <mxGeometry x="91" width="171" height="51" as="geometry">
            <mxRectangle width="171" height="51" as="alternateBounds" />
          </mxGeometry>
        </mxCell>
        <mxCell id="i6ytHLpOtppgZ-BSXe9w-150" value="" style="shape=partialRectangle;html=1;whiteSpace=wrap;connectable=0;overflow=hidden;fillColor=none;top=0;left=0;bottom=0;right=0;pointerEvents=1;" vertex="1" parent="i6ytHLpOtppgZ-BSXe9w-147">
          <mxGeometry x="262" width="191" height="51" as="geometry">
            <mxRectangle width="191" height="51" as="alternateBounds" />
          </mxGeometry>
        </mxCell>
        <mxCell id="i6ytHLpOtppgZ-BSXe9w-151" value="" style="shape=partialRectangle;html=1;whiteSpace=wrap;connectable=0;overflow=hidden;fillColor=none;top=0;left=0;bottom=0;right=0;pointerEvents=1;" vertex="1" parent="i6ytHLpOtppgZ-BSXe9w-147">
          <mxGeometry x="453" width="181" height="51" as="geometry">
            <mxRectangle width="181" height="51" as="alternateBounds" />
          </mxGeometry>
        </mxCell>
        <mxCell id="i6ytHLpOtppgZ-BSXe9w-152" value="" style="shape=partialRectangle;html=1;whiteSpace=wrap;connectable=0;overflow=hidden;fillColor=none;top=0;left=0;bottom=0;right=0;pointerEvents=1;" vertex="1" parent="i6ytHLpOtppgZ-BSXe9w-147">
          <mxGeometry x="634" width="171" height="51" as="geometry">
            <mxRectangle width="171" height="51" as="alternateBounds" />
          </mxGeometry>
        </mxCell>
        <mxCell id="i6ytHLpOtppgZ-BSXe9w-153" value="" style="shape=partialRectangle;html=1;whiteSpace=wrap;connectable=0;overflow=hidden;fillColor=none;top=0;left=0;bottom=0;right=0;pointerEvents=1;" vertex="1" parent="i6ytHLpOtppgZ-BSXe9w-147">
          <mxGeometry x="805" width="171" height="51" as="geometry">
            <mxRectangle width="171" height="51" as="alternateBounds" />
          </mxGeometry>
        </mxCell>
        <mxCell id="i6ytHLpOtppgZ-BSXe9w-154" value="" style="shape=partialRectangle;html=1;whiteSpace=wrap;connectable=0;overflow=hidden;fillColor=none;top=0;left=0;bottom=0;right=0;pointerEvents=1;" vertex="1" parent="i6ytHLpOtppgZ-BSXe9w-147">
          <mxGeometry x="976" width="171" height="51" as="geometry">
            <mxRectangle width="171" height="51" as="alternateBounds" />
          </mxGeometry>
        </mxCell>
        <mxCell id="i6ytHLpOtppgZ-BSXe9w-155" value="" style="shape=partialRectangle;html=1;whiteSpace=wrap;connectable=0;overflow=hidden;fillColor=none;top=0;left=0;bottom=0;right=0;pointerEvents=1;" vertex="1" parent="i6ytHLpOtppgZ-BSXe9w-147">
          <mxGeometry x="1147" width="151" height="51" as="geometry">
            <mxRectangle width="151" height="51" as="alternateBounds" />
          </mxGeometry>
        </mxCell>
        <mxCell id="i6ytHLpOtppgZ-BSXe9w-156" value="" style="shape=partialRectangle;html=1;whiteSpace=wrap;connectable=0;overflow=hidden;fillColor=none;top=0;left=0;bottom=0;right=0;pointerEvents=1;" vertex="1" parent="i6ytHLpOtppgZ-BSXe9w-147">
          <mxGeometry x="1298" width="172" height="51" as="geometry">
            <mxRectangle width="172" height="51" as="alternateBounds" />
          </mxGeometry>
        </mxCell>
        <mxCell id="i6ytHLpOtppgZ-BSXe9w-157" value="" style="shape=partialRectangle;html=1;whiteSpace=wrap;connectable=0;overflow=hidden;fillColor=none;top=0;left=0;bottom=0;right=0;pointerEvents=1;" vertex="1" parent="i6ytHLpOtppgZ-BSXe9w-147">
          <mxGeometry x="1470" width="140" height="51" as="geometry">
            <mxRectangle width="140" height="51" as="alternateBounds" />
          </mxGeometry>
        </mxCell>
        <mxCell id="i6ytHLpOtppgZ-BSXe9w-174" value="" style="shape=tableRow;horizontal=0;startSize=0;swimlaneHead=0;swimlaneBody=0;top=0;left=0;bottom=0;right=0;collapsible=0;dropTarget=0;fillColor=none;points=[[0,0.5],[1,0.5]];portConstraint=eastwest;" vertex="1" parent="i6ytHLpOtppgZ-BSXe9w-58">
          <mxGeometry y="467" width="1610" height="41" as="geometry" />
        </mxCell>
        <mxCell id="i6ytHLpOtppgZ-BSXe9w-175" value="9" style="shape=partialRectangle;html=1;whiteSpace=wrap;connectable=0;overflow=hidden;fillColor=none;top=0;left=0;bottom=0;right=0;pointerEvents=1;" vertex="1" parent="i6ytHLpOtppgZ-BSXe9w-174">
          <mxGeometry width="91" height="41" as="geometry">
            <mxRectangle width="91" height="41" as="alternateBounds" />
          </mxGeometry>
        </mxCell>
        <mxCell id="i6ytHLpOtppgZ-BSXe9w-176" value="" style="shape=partialRectangle;html=1;whiteSpace=wrap;connectable=0;overflow=hidden;fillColor=none;top=0;left=0;bottom=0;right=0;pointerEvents=1;" vertex="1" parent="i6ytHLpOtppgZ-BSXe9w-174">
          <mxGeometry x="91" width="171" height="41" as="geometry">
            <mxRectangle width="171" height="41" as="alternateBounds" />
          </mxGeometry>
        </mxCell>
        <mxCell id="i6ytHLpOtppgZ-BSXe9w-199" value="" style="shape=partialRectangle;html=1;whiteSpace=wrap;connectable=0;overflow=hidden;fillColor=none;top=0;left=0;bottom=0;right=0;pointerEvents=1;" vertex="1" parent="i6ytHLpOtppgZ-BSXe9w-174">
          <mxGeometry x="262" width="191" height="41" as="geometry">
            <mxRectangle width="191" height="41" as="alternateBounds" />
          </mxGeometry>
        </mxCell>
        <mxCell id="i6ytHLpOtppgZ-BSXe9w-200" value="" style="shape=partialRectangle;html=1;whiteSpace=wrap;connectable=0;overflow=hidden;fillColor=none;top=0;left=0;bottom=0;right=0;pointerEvents=1;" vertex="1" parent="i6ytHLpOtppgZ-BSXe9w-174">
          <mxGeometry x="453" width="181" height="41" as="geometry">
            <mxRectangle width="181" height="41" as="alternateBounds" />
          </mxGeometry>
        </mxCell>
        <mxCell id="i6ytHLpOtppgZ-BSXe9w-201" value="" style="shape=partialRectangle;html=1;whiteSpace=wrap;connectable=0;overflow=hidden;fillColor=none;top=0;left=0;bottom=0;right=0;pointerEvents=1;" vertex="1" parent="i6ytHLpOtppgZ-BSXe9w-174">
          <mxGeometry x="634" width="171" height="41" as="geometry">
            <mxRectangle width="171" height="41" as="alternateBounds" />
          </mxGeometry>
        </mxCell>
        <mxCell id="i6ytHLpOtppgZ-BSXe9w-202" value="" style="shape=partialRectangle;html=1;whiteSpace=wrap;connectable=0;overflow=hidden;fillColor=none;top=0;left=0;bottom=0;right=0;pointerEvents=1;" vertex="1" parent="i6ytHLpOtppgZ-BSXe9w-174">
          <mxGeometry x="805" width="171" height="41" as="geometry">
            <mxRectangle width="171" height="41" as="alternateBounds" />
          </mxGeometry>
        </mxCell>
        <mxCell id="i6ytHLpOtppgZ-BSXe9w-203" value="" style="shape=partialRectangle;html=1;whiteSpace=wrap;connectable=0;overflow=hidden;fillColor=none;top=0;left=0;bottom=0;right=0;pointerEvents=1;" vertex="1" parent="i6ytHLpOtppgZ-BSXe9w-174">
          <mxGeometry x="976" width="171" height="41" as="geometry">
            <mxRectangle width="171" height="41" as="alternateBounds" />
          </mxGeometry>
        </mxCell>
        <mxCell id="i6ytHLpOtppgZ-BSXe9w-204" value="" style="shape=partialRectangle;html=1;whiteSpace=wrap;connectable=0;overflow=hidden;fillColor=none;top=0;left=0;bottom=0;right=0;pointerEvents=1;" vertex="1" parent="i6ytHLpOtppgZ-BSXe9w-174">
          <mxGeometry x="1147" width="151" height="41" as="geometry">
            <mxRectangle width="151" height="41" as="alternateBounds" />
          </mxGeometry>
        </mxCell>
        <mxCell id="i6ytHLpOtppgZ-BSXe9w-205" value="" style="shape=partialRectangle;html=1;whiteSpace=wrap;connectable=0;overflow=hidden;fillColor=none;top=0;left=0;bottom=0;right=0;pointerEvents=1;" vertex="1" parent="i6ytHLpOtppgZ-BSXe9w-174">
          <mxGeometry x="1298" width="172" height="41" as="geometry">
            <mxRectangle width="172" height="41" as="alternateBounds" />
          </mxGeometry>
        </mxCell>
        <mxCell id="i6ytHLpOtppgZ-BSXe9w-206" value="" style="shape=partialRectangle;html=1;whiteSpace=wrap;connectable=0;overflow=hidden;fillColor=none;top=0;left=0;bottom=0;right=0;pointerEvents=1;" vertex="1" parent="i6ytHLpOtppgZ-BSXe9w-174">
          <mxGeometry x="1470" width="140" height="41" as="geometry">
            <mxRectangle width="140" height="41" as="alternateBounds" />
          </mxGeometry>
        </mxCell>
        <mxCell id="i6ytHLpOtppgZ-BSXe9w-171" value="" style="shape=tableRow;horizontal=0;startSize=0;swimlaneHead=0;swimlaneBody=0;top=0;left=0;bottom=0;right=0;collapsible=0;dropTarget=0;fillColor=none;points=[[0,0.5],[1,0.5]];portConstraint=eastwest;" vertex="1" parent="i6ytHLpOtppgZ-BSXe9w-58">
          <mxGeometry y="508" width="1610" height="40" as="geometry" />
        </mxCell>
        <mxCell id="i6ytHLpOtppgZ-BSXe9w-172" value="10" style="shape=partialRectangle;html=1;whiteSpace=wrap;connectable=0;overflow=hidden;fillColor=none;top=0;left=0;bottom=0;right=0;pointerEvents=1;" vertex="1" parent="i6ytHLpOtppgZ-BSXe9w-171">
          <mxGeometry width="91" height="40" as="geometry">
            <mxRectangle width="91" height="40" as="alternateBounds" />
          </mxGeometry>
        </mxCell>
        <mxCell id="i6ytHLpOtppgZ-BSXe9w-173" value="" style="shape=partialRectangle;html=1;whiteSpace=wrap;connectable=0;overflow=hidden;fillColor=none;top=0;left=0;bottom=0;right=0;pointerEvents=1;" vertex="1" parent="i6ytHLpOtppgZ-BSXe9w-171">
          <mxGeometry x="91" width="171" height="40" as="geometry">
            <mxRectangle width="171" height="40" as="alternateBounds" />
          </mxGeometry>
        </mxCell>
        <mxCell id="i6ytHLpOtppgZ-BSXe9w-207" value="" style="shape=partialRectangle;html=1;whiteSpace=wrap;connectable=0;overflow=hidden;fillColor=none;top=0;left=0;bottom=0;right=0;pointerEvents=1;" vertex="1" parent="i6ytHLpOtppgZ-BSXe9w-171">
          <mxGeometry x="262" width="191" height="40" as="geometry">
            <mxRectangle width="191" height="40" as="alternateBounds" />
          </mxGeometry>
        </mxCell>
        <mxCell id="i6ytHLpOtppgZ-BSXe9w-208" value="" style="shape=partialRectangle;html=1;whiteSpace=wrap;connectable=0;overflow=hidden;fillColor=none;top=0;left=0;bottom=0;right=0;pointerEvents=1;" vertex="1" parent="i6ytHLpOtppgZ-BSXe9w-171">
          <mxGeometry x="453" width="181" height="40" as="geometry">
            <mxRectangle width="181" height="40" as="alternateBounds" />
          </mxGeometry>
        </mxCell>
        <mxCell id="i6ytHLpOtppgZ-BSXe9w-209" value="" style="shape=partialRectangle;html=1;whiteSpace=wrap;connectable=0;overflow=hidden;fillColor=none;top=0;left=0;bottom=0;right=0;pointerEvents=1;" vertex="1" parent="i6ytHLpOtppgZ-BSXe9w-171">
          <mxGeometry x="634" width="171" height="40" as="geometry">
            <mxRectangle width="171" height="40" as="alternateBounds" />
          </mxGeometry>
        </mxCell>
        <mxCell id="i6ytHLpOtppgZ-BSXe9w-210" value="" style="shape=partialRectangle;html=1;whiteSpace=wrap;connectable=0;overflow=hidden;fillColor=none;top=0;left=0;bottom=0;right=0;pointerEvents=1;" vertex="1" parent="i6ytHLpOtppgZ-BSXe9w-171">
          <mxGeometry x="805" width="171" height="40" as="geometry">
            <mxRectangle width="171" height="40" as="alternateBounds" />
          </mxGeometry>
        </mxCell>
        <mxCell id="i6ytHLpOtppgZ-BSXe9w-211" value="" style="shape=partialRectangle;html=1;whiteSpace=wrap;connectable=0;overflow=hidden;fillColor=none;top=0;left=0;bottom=0;right=0;pointerEvents=1;" vertex="1" parent="i6ytHLpOtppgZ-BSXe9w-171">
          <mxGeometry x="976" width="171" height="40" as="geometry">
            <mxRectangle width="171" height="40" as="alternateBounds" />
          </mxGeometry>
        </mxCell>
        <mxCell id="i6ytHLpOtppgZ-BSXe9w-212" value="" style="shape=partialRectangle;html=1;whiteSpace=wrap;connectable=0;overflow=hidden;fillColor=none;top=0;left=0;bottom=0;right=0;pointerEvents=1;" vertex="1" parent="i6ytHLpOtppgZ-BSXe9w-171">
          <mxGeometry x="1147" width="151" height="40" as="geometry">
            <mxRectangle width="151" height="40" as="alternateBounds" />
          </mxGeometry>
        </mxCell>
        <mxCell id="i6ytHLpOtppgZ-BSXe9w-213" value="" style="shape=partialRectangle;html=1;whiteSpace=wrap;connectable=0;overflow=hidden;fillColor=none;top=0;left=0;bottom=0;right=0;pointerEvents=1;" vertex="1" parent="i6ytHLpOtppgZ-BSXe9w-171">
          <mxGeometry x="1298" width="172" height="40" as="geometry">
            <mxRectangle width="172" height="40" as="alternateBounds" />
          </mxGeometry>
        </mxCell>
        <mxCell id="i6ytHLpOtppgZ-BSXe9w-214" value="" style="shape=partialRectangle;html=1;whiteSpace=wrap;connectable=0;overflow=hidden;fillColor=none;top=0;left=0;bottom=0;right=0;pointerEvents=1;" vertex="1" parent="i6ytHLpOtppgZ-BSXe9w-171">
          <mxGeometry x="1470" width="140" height="40" as="geometry">
            <mxRectangle width="140" height="40" as="alternateBounds" />
          </mxGeometry>
        </mxCell>
        <mxCell id="i6ytHLpOtppgZ-BSXe9w-177" value="" style="shape=tableRow;horizontal=0;startSize=0;swimlaneHead=0;swimlaneBody=0;top=0;left=0;bottom=0;right=0;collapsible=0;dropTarget=0;fillColor=none;points=[[0,0.5],[1,0.5]];portConstraint=eastwest;" vertex="1" parent="i6ytHLpOtppgZ-BSXe9w-58">
          <mxGeometry y="548" width="1610" height="41" as="geometry" />
        </mxCell>
        <mxCell id="i6ytHLpOtppgZ-BSXe9w-178" value="11" style="shape=partialRectangle;html=1;whiteSpace=wrap;connectable=0;overflow=hidden;fillColor=none;top=0;left=0;bottom=0;right=0;pointerEvents=1;" vertex="1" parent="i6ytHLpOtppgZ-BSXe9w-177">
          <mxGeometry width="91" height="41" as="geometry">
            <mxRectangle width="91" height="41" as="alternateBounds" />
          </mxGeometry>
        </mxCell>
        <mxCell id="i6ytHLpOtppgZ-BSXe9w-179" value="" style="shape=partialRectangle;html=1;whiteSpace=wrap;connectable=0;overflow=hidden;fillColor=none;top=0;left=0;bottom=0;right=0;pointerEvents=1;" vertex="1" parent="i6ytHLpOtppgZ-BSXe9w-177">
          <mxGeometry x="91" width="171" height="41" as="geometry">
            <mxRectangle width="171" height="41" as="alternateBounds" />
          </mxGeometry>
        </mxCell>
        <mxCell id="i6ytHLpOtppgZ-BSXe9w-191" value="" style="shape=partialRectangle;html=1;whiteSpace=wrap;connectable=0;overflow=hidden;fillColor=none;top=0;left=0;bottom=0;right=0;pointerEvents=1;" vertex="1" parent="i6ytHLpOtppgZ-BSXe9w-177">
          <mxGeometry x="262" width="191" height="41" as="geometry">
            <mxRectangle width="191" height="41" as="alternateBounds" />
          </mxGeometry>
        </mxCell>
        <mxCell id="i6ytHLpOtppgZ-BSXe9w-192" value="" style="shape=partialRectangle;html=1;whiteSpace=wrap;connectable=0;overflow=hidden;fillColor=none;top=0;left=0;bottom=0;right=0;pointerEvents=1;" vertex="1" parent="i6ytHLpOtppgZ-BSXe9w-177">
          <mxGeometry x="453" width="181" height="41" as="geometry">
            <mxRectangle width="181" height="41" as="alternateBounds" />
          </mxGeometry>
        </mxCell>
        <mxCell id="i6ytHLpOtppgZ-BSXe9w-193" value="" style="shape=partialRectangle;html=1;whiteSpace=wrap;connectable=0;overflow=hidden;fillColor=none;top=0;left=0;bottom=0;right=0;pointerEvents=1;" vertex="1" parent="i6ytHLpOtppgZ-BSXe9w-177">
          <mxGeometry x="634" width="171" height="41" as="geometry">
            <mxRectangle width="171" height="41" as="alternateBounds" />
          </mxGeometry>
        </mxCell>
        <mxCell id="i6ytHLpOtppgZ-BSXe9w-194" value="" style="shape=partialRectangle;html=1;whiteSpace=wrap;connectable=0;overflow=hidden;fillColor=none;top=0;left=0;bottom=0;right=0;pointerEvents=1;" vertex="1" parent="i6ytHLpOtppgZ-BSXe9w-177">
          <mxGeometry x="805" width="171" height="41" as="geometry">
            <mxRectangle width="171" height="41" as="alternateBounds" />
          </mxGeometry>
        </mxCell>
        <mxCell id="i6ytHLpOtppgZ-BSXe9w-195" value="" style="shape=partialRectangle;html=1;whiteSpace=wrap;connectable=0;overflow=hidden;fillColor=none;top=0;left=0;bottom=0;right=0;pointerEvents=1;" vertex="1" parent="i6ytHLpOtppgZ-BSXe9w-177">
          <mxGeometry x="976" width="171" height="41" as="geometry">
            <mxRectangle width="171" height="41" as="alternateBounds" />
          </mxGeometry>
        </mxCell>
        <mxCell id="i6ytHLpOtppgZ-BSXe9w-196" value="" style="shape=partialRectangle;html=1;whiteSpace=wrap;connectable=0;overflow=hidden;fillColor=none;top=0;left=0;bottom=0;right=0;pointerEvents=1;" vertex="1" parent="i6ytHLpOtppgZ-BSXe9w-177">
          <mxGeometry x="1147" width="151" height="41" as="geometry">
            <mxRectangle width="151" height="41" as="alternateBounds" />
          </mxGeometry>
        </mxCell>
        <mxCell id="i6ytHLpOtppgZ-BSXe9w-197" value="" style="shape=partialRectangle;html=1;whiteSpace=wrap;connectable=0;overflow=hidden;fillColor=none;top=0;left=0;bottom=0;right=0;pointerEvents=1;" vertex="1" parent="i6ytHLpOtppgZ-BSXe9w-177">
          <mxGeometry x="1298" width="172" height="41" as="geometry">
            <mxRectangle width="172" height="41" as="alternateBounds" />
          </mxGeometry>
        </mxCell>
        <mxCell id="i6ytHLpOtppgZ-BSXe9w-198" value="" style="shape=partialRectangle;html=1;whiteSpace=wrap;connectable=0;overflow=hidden;fillColor=none;top=0;left=0;bottom=0;right=0;pointerEvents=1;" vertex="1" parent="i6ytHLpOtppgZ-BSXe9w-177">
          <mxGeometry x="1470" width="140" height="41" as="geometry">
            <mxRectangle width="140" height="41" as="alternateBounds" />
          </mxGeometry>
        </mxCell>
        <mxCell id="i6ytHLpOtppgZ-BSXe9w-180" value="" style="shape=tableRow;horizontal=0;startSize=0;swimlaneHead=0;swimlaneBody=0;top=0;left=0;bottom=0;right=0;collapsible=0;dropTarget=0;fillColor=none;points=[[0,0.5],[1,0.5]];portConstraint=eastwest;" vertex="1" parent="i6ytHLpOtppgZ-BSXe9w-58">
          <mxGeometry y="589" width="1610" height="41" as="geometry" />
        </mxCell>
        <mxCell id="i6ytHLpOtppgZ-BSXe9w-181" value="12" style="shape=partialRectangle;html=1;whiteSpace=wrap;connectable=0;overflow=hidden;fillColor=none;top=0;left=0;bottom=0;right=0;pointerEvents=1;" vertex="1" parent="i6ytHLpOtppgZ-BSXe9w-180">
          <mxGeometry width="91" height="41" as="geometry">
            <mxRectangle width="91" height="41" as="alternateBounds" />
          </mxGeometry>
        </mxCell>
        <mxCell id="i6ytHLpOtppgZ-BSXe9w-182" value="" style="shape=partialRectangle;html=1;whiteSpace=wrap;connectable=0;overflow=hidden;fillColor=none;top=0;left=0;bottom=0;right=0;pointerEvents=1;" vertex="1" parent="i6ytHLpOtppgZ-BSXe9w-180">
          <mxGeometry x="91" width="171" height="41" as="geometry">
            <mxRectangle width="171" height="41" as="alternateBounds" />
          </mxGeometry>
        </mxCell>
        <mxCell id="i6ytHLpOtppgZ-BSXe9w-183" value="" style="shape=partialRectangle;html=1;whiteSpace=wrap;connectable=0;overflow=hidden;fillColor=none;top=0;left=0;bottom=0;right=0;pointerEvents=1;" vertex="1" parent="i6ytHLpOtppgZ-BSXe9w-180">
          <mxGeometry x="262" width="191" height="41" as="geometry">
            <mxRectangle width="191" height="41" as="alternateBounds" />
          </mxGeometry>
        </mxCell>
        <mxCell id="i6ytHLpOtppgZ-BSXe9w-184" value="" style="shape=partialRectangle;html=1;whiteSpace=wrap;connectable=0;overflow=hidden;fillColor=none;top=0;left=0;bottom=0;right=0;pointerEvents=1;" vertex="1" parent="i6ytHLpOtppgZ-BSXe9w-180">
          <mxGeometry x="453" width="181" height="41" as="geometry">
            <mxRectangle width="181" height="41" as="alternateBounds" />
          </mxGeometry>
        </mxCell>
        <mxCell id="i6ytHLpOtppgZ-BSXe9w-185" value="" style="shape=partialRectangle;html=1;whiteSpace=wrap;connectable=0;overflow=hidden;fillColor=none;top=0;left=0;bottom=0;right=0;pointerEvents=1;" vertex="1" parent="i6ytHLpOtppgZ-BSXe9w-180">
          <mxGeometry x="634" width="171" height="41" as="geometry">
            <mxRectangle width="171" height="41" as="alternateBounds" />
          </mxGeometry>
        </mxCell>
        <mxCell id="i6ytHLpOtppgZ-BSXe9w-186" value="" style="shape=partialRectangle;html=1;whiteSpace=wrap;connectable=0;overflow=hidden;fillColor=none;top=0;left=0;bottom=0;right=0;pointerEvents=1;" vertex="1" parent="i6ytHLpOtppgZ-BSXe9w-180">
          <mxGeometry x="805" width="171" height="41" as="geometry">
            <mxRectangle width="171" height="41" as="alternateBounds" />
          </mxGeometry>
        </mxCell>
        <mxCell id="i6ytHLpOtppgZ-BSXe9w-187" value="" style="shape=partialRectangle;html=1;whiteSpace=wrap;connectable=0;overflow=hidden;fillColor=none;top=0;left=0;bottom=0;right=0;pointerEvents=1;" vertex="1" parent="i6ytHLpOtppgZ-BSXe9w-180">
          <mxGeometry x="976" width="171" height="41" as="geometry">
            <mxRectangle width="171" height="41" as="alternateBounds" />
          </mxGeometry>
        </mxCell>
        <mxCell id="i6ytHLpOtppgZ-BSXe9w-188" value="" style="shape=partialRectangle;html=1;whiteSpace=wrap;connectable=0;overflow=hidden;fillColor=none;top=0;left=0;bottom=0;right=0;pointerEvents=1;" vertex="1" parent="i6ytHLpOtppgZ-BSXe9w-180">
          <mxGeometry x="1147" width="151" height="41" as="geometry">
            <mxRectangle width="151" height="41" as="alternateBounds" />
          </mxGeometry>
        </mxCell>
        <mxCell id="i6ytHLpOtppgZ-BSXe9w-189" value="" style="shape=partialRectangle;html=1;whiteSpace=wrap;connectable=0;overflow=hidden;fillColor=none;top=0;left=0;bottom=0;right=0;pointerEvents=1;" vertex="1" parent="i6ytHLpOtppgZ-BSXe9w-180">
          <mxGeometry x="1298" width="172" height="41" as="geometry">
            <mxRectangle width="172" height="41" as="alternateBounds" />
          </mxGeometry>
        </mxCell>
        <mxCell id="i6ytHLpOtppgZ-BSXe9w-190" value="" style="shape=partialRectangle;html=1;whiteSpace=wrap;connectable=0;overflow=hidden;fillColor=none;top=0;left=0;bottom=0;right=0;pointerEvents=1;" vertex="1" parent="i6ytHLpOtppgZ-BSXe9w-180">
          <mxGeometry x="1470" width="140" height="41" as="geometry">
            <mxRectangle width="140" height="41" as="alternateBounds" />
          </mxGeometry>
        </mxCell>
        <mxCell id="i6ytHLpOtppgZ-BSXe9w-158" value="" style="shape=tableRow;horizontal=0;startSize=0;swimlaneHead=0;swimlaneBody=0;top=0;left=0;bottom=0;right=0;collapsible=0;dropTarget=0;fillColor=none;points=[[0,0.5],[1,0.5]];portConstraint=eastwest;" vertex="1" parent="i6ytHLpOtppgZ-BSXe9w-58">
          <mxGeometry y="630" width="1610" height="20" as="geometry" />
        </mxCell>
        <mxCell id="i6ytHLpOtppgZ-BSXe9w-159" value="13" style="shape=partialRectangle;html=1;whiteSpace=wrap;connectable=0;overflow=hidden;fillColor=none;top=0;left=0;bottom=0;right=0;pointerEvents=1;" vertex="1" parent="i6ytHLpOtppgZ-BSXe9w-158">
          <mxGeometry width="91" height="20" as="geometry">
            <mxRectangle width="91" height="20" as="alternateBounds" />
          </mxGeometry>
        </mxCell>
        <mxCell id="i6ytHLpOtppgZ-BSXe9w-160" value="" style="shape=partialRectangle;html=1;whiteSpace=wrap;connectable=0;overflow=hidden;fillColor=none;top=0;left=0;bottom=0;right=0;pointerEvents=1;" vertex="1" parent="i6ytHLpOtppgZ-BSXe9w-158">
          <mxGeometry x="91" width="171" height="20" as="geometry">
            <mxRectangle width="171" height="20" as="alternateBounds" />
          </mxGeometry>
        </mxCell>
        <mxCell id="i6ytHLpOtppgZ-BSXe9w-161" value="" style="shape=partialRectangle;html=1;whiteSpace=wrap;connectable=0;overflow=hidden;fillColor=none;top=0;left=0;bottom=0;right=0;pointerEvents=1;" vertex="1" parent="i6ytHLpOtppgZ-BSXe9w-158">
          <mxGeometry x="262" width="191" height="20" as="geometry">
            <mxRectangle width="191" height="20" as="alternateBounds" />
          </mxGeometry>
        </mxCell>
        <mxCell id="i6ytHLpOtppgZ-BSXe9w-162" value="" style="shape=partialRectangle;html=1;whiteSpace=wrap;connectable=0;overflow=hidden;fillColor=none;top=0;left=0;bottom=0;right=0;pointerEvents=1;" vertex="1" parent="i6ytHLpOtppgZ-BSXe9w-158">
          <mxGeometry x="453" width="181" height="20" as="geometry">
            <mxRectangle width="181" height="20" as="alternateBounds" />
          </mxGeometry>
        </mxCell>
        <mxCell id="i6ytHLpOtppgZ-BSXe9w-163" value="" style="shape=partialRectangle;html=1;whiteSpace=wrap;connectable=0;overflow=hidden;fillColor=none;top=0;left=0;bottom=0;right=0;pointerEvents=1;" vertex="1" parent="i6ytHLpOtppgZ-BSXe9w-158">
          <mxGeometry x="634" width="171" height="20" as="geometry">
            <mxRectangle width="171" height="20" as="alternateBounds" />
          </mxGeometry>
        </mxCell>
        <mxCell id="i6ytHLpOtppgZ-BSXe9w-164" value="" style="shape=partialRectangle;html=1;whiteSpace=wrap;connectable=0;overflow=hidden;fillColor=none;top=0;left=0;bottom=0;right=0;pointerEvents=1;" vertex="1" parent="i6ytHLpOtppgZ-BSXe9w-158">
          <mxGeometry x="805" width="171" height="20" as="geometry">
            <mxRectangle width="171" height="20" as="alternateBounds" />
          </mxGeometry>
        </mxCell>
        <mxCell id="i6ytHLpOtppgZ-BSXe9w-165" value="" style="shape=partialRectangle;html=1;whiteSpace=wrap;connectable=0;overflow=hidden;fillColor=none;top=0;left=0;bottom=0;right=0;pointerEvents=1;" vertex="1" parent="i6ytHLpOtppgZ-BSXe9w-158">
          <mxGeometry x="976" width="171" height="20" as="geometry">
            <mxRectangle width="171" height="20" as="alternateBounds" />
          </mxGeometry>
        </mxCell>
        <mxCell id="i6ytHLpOtppgZ-BSXe9w-166" value="" style="shape=partialRectangle;html=1;whiteSpace=wrap;connectable=0;overflow=hidden;fillColor=none;top=0;left=0;bottom=0;right=0;pointerEvents=1;" vertex="1" parent="i6ytHLpOtppgZ-BSXe9w-158">
          <mxGeometry x="1147" width="151" height="20" as="geometry">
            <mxRectangle width="151" height="20" as="alternateBounds" />
          </mxGeometry>
        </mxCell>
        <mxCell id="i6ytHLpOtppgZ-BSXe9w-167" value="" style="shape=partialRectangle;html=1;whiteSpace=wrap;connectable=0;overflow=hidden;fillColor=none;top=0;left=0;bottom=0;right=0;pointerEvents=1;" vertex="1" parent="i6ytHLpOtppgZ-BSXe9w-158">
          <mxGeometry x="1298" width="172" height="20" as="geometry">
            <mxRectangle width="172" height="20" as="alternateBounds" />
          </mxGeometry>
        </mxCell>
        <mxCell id="i6ytHLpOtppgZ-BSXe9w-168" value="" style="shape=partialRectangle;html=1;whiteSpace=wrap;connectable=0;overflow=hidden;fillColor=none;top=0;left=0;bottom=0;right=0;pointerEvents=1;" vertex="1" parent="i6ytHLpOtppgZ-BSXe9w-158">
          <mxGeometry x="1470" width="140" height="20" as="geometry">
            <mxRectangle width="140" height="20" as="alternateBounds" />
          </mxGeometry>
        </mxCell>
        <mxCell id="i6ytHLpOtppgZ-BSXe9w-215" value="" style="shape=table;startSize=0;container=1;collapsible=0;childLayout=tableLayout;" vertex="1" parent="1">
          <mxGeometry x="-770" y="780" width="350" height="200" as="geometry" />
        </mxCell>
        <mxCell id="i6ytHLpOtppgZ-BSXe9w-216" value="" style="shape=tableRow;horizontal=0;startSize=0;swimlaneHead=0;swimlaneBody=0;top=0;left=0;bottom=0;right=0;collapsible=0;dropTarget=0;fillColor=none;points=[[0,0.5],[1,0.5]];portConstraint=eastwest;" vertex="1" parent="i6ytHLpOtppgZ-BSXe9w-215">
          <mxGeometry width="350" height="40" as="geometry" />
        </mxCell>
        <mxCell id="i6ytHLpOtppgZ-BSXe9w-217" value="ID" style="shape=partialRectangle;html=1;whiteSpace=wrap;connectable=0;overflow=hidden;fillColor=none;top=0;left=0;bottom=0;right=0;pointerEvents=1;" vertex="1" parent="i6ytHLpOtppgZ-BSXe9w-216">
          <mxGeometry width="110" height="40" as="geometry">
            <mxRectangle width="110" height="40" as="alternateBounds" />
          </mxGeometry>
        </mxCell>
        <mxCell id="i6ytHLpOtppgZ-BSXe9w-218" value="tipo di alimentazione&lt;br&gt;VARCHAR(40)&lt;br&gt;NOTNUL" style="shape=partialRectangle;html=1;whiteSpace=wrap;connectable=0;overflow=hidden;fillColor=none;top=0;left=0;bottom=0;right=0;pointerEvents=1;" vertex="1" parent="i6ytHLpOtppgZ-BSXe9w-216">
          <mxGeometry x="110" width="240" height="40" as="geometry">
            <mxRectangle width="240" height="40" as="alternateBounds" />
          </mxGeometry>
        </mxCell>
        <mxCell id="i6ytHLpOtppgZ-BSXe9w-219" value="" style="shape=tableRow;horizontal=0;startSize=0;swimlaneHead=0;swimlaneBody=0;top=0;left=0;bottom=0;right=0;collapsible=0;dropTarget=0;fillColor=none;points=[[0,0.5],[1,0.5]];portConstraint=eastwest;" vertex="1" parent="i6ytHLpOtppgZ-BSXe9w-215">
          <mxGeometry y="40" width="350" height="40" as="geometry" />
        </mxCell>
        <mxCell id="i6ytHLpOtppgZ-BSXe9w-220" value="1" style="shape=partialRectangle;html=1;whiteSpace=wrap;connectable=0;overflow=hidden;fillColor=none;top=0;left=0;bottom=0;right=0;pointerEvents=1;" vertex="1" parent="i6ytHLpOtppgZ-BSXe9w-219">
          <mxGeometry width="110" height="40" as="geometry">
            <mxRectangle width="110" height="40" as="alternateBounds" />
          </mxGeometry>
        </mxCell>
        <mxCell id="i6ytHLpOtppgZ-BSXe9w-221" value="" style="shape=partialRectangle;html=1;whiteSpace=wrap;connectable=0;overflow=hidden;fillColor=none;top=0;left=0;bottom=0;right=0;pointerEvents=1;" vertex="1" parent="i6ytHLpOtppgZ-BSXe9w-219">
          <mxGeometry x="110" width="240" height="40" as="geometry">
            <mxRectangle width="240" height="40" as="alternateBounds" />
          </mxGeometry>
        </mxCell>
        <mxCell id="i6ytHLpOtppgZ-BSXe9w-222" value="" style="shape=tableRow;horizontal=0;startSize=0;swimlaneHead=0;swimlaneBody=0;top=0;left=0;bottom=0;right=0;collapsible=0;dropTarget=0;fillColor=none;points=[[0,0.5],[1,0.5]];portConstraint=eastwest;" vertex="1" parent="i6ytHLpOtppgZ-BSXe9w-215">
          <mxGeometry y="80" width="350" height="40" as="geometry" />
        </mxCell>
        <mxCell id="i6ytHLpOtppgZ-BSXe9w-223" value="2" style="shape=partialRectangle;html=1;whiteSpace=wrap;connectable=0;overflow=hidden;fillColor=none;top=0;left=0;bottom=0;right=0;pointerEvents=1;" vertex="1" parent="i6ytHLpOtppgZ-BSXe9w-222">
          <mxGeometry width="110" height="40" as="geometry">
            <mxRectangle width="110" height="40" as="alternateBounds" />
          </mxGeometry>
        </mxCell>
        <mxCell id="i6ytHLpOtppgZ-BSXe9w-224" value="" style="shape=partialRectangle;html=1;whiteSpace=wrap;connectable=0;overflow=hidden;fillColor=none;top=0;left=0;bottom=0;right=0;pointerEvents=1;" vertex="1" parent="i6ytHLpOtppgZ-BSXe9w-222">
          <mxGeometry x="110" width="240" height="40" as="geometry">
            <mxRectangle width="240" height="40" as="alternateBounds" />
          </mxGeometry>
        </mxCell>
        <mxCell id="i6ytHLpOtppgZ-BSXe9w-225" value="" style="shape=tableRow;horizontal=0;startSize=0;swimlaneHead=0;swimlaneBody=0;top=0;left=0;bottom=0;right=0;collapsible=0;dropTarget=0;fillColor=none;points=[[0,0.5],[1,0.5]];portConstraint=eastwest;" vertex="1" parent="i6ytHLpOtppgZ-BSXe9w-215">
          <mxGeometry y="120" width="350" height="40" as="geometry" />
        </mxCell>
        <mxCell id="i6ytHLpOtppgZ-BSXe9w-226" value="3" style="shape=partialRectangle;html=1;whiteSpace=wrap;connectable=0;overflow=hidden;fillColor=none;top=0;left=0;bottom=0;right=0;pointerEvents=1;" vertex="1" parent="i6ytHLpOtppgZ-BSXe9w-225">
          <mxGeometry width="110" height="40" as="geometry">
            <mxRectangle width="110" height="40" as="alternateBounds" />
          </mxGeometry>
        </mxCell>
        <mxCell id="i6ytHLpOtppgZ-BSXe9w-227" value="" style="shape=partialRectangle;html=1;whiteSpace=wrap;connectable=0;overflow=hidden;fillColor=none;top=0;left=0;bottom=0;right=0;pointerEvents=1;" vertex="1" parent="i6ytHLpOtppgZ-BSXe9w-225">
          <mxGeometry x="110" width="240" height="40" as="geometry">
            <mxRectangle width="240" height="40" as="alternateBounds" />
          </mxGeometry>
        </mxCell>
        <mxCell id="i6ytHLpOtppgZ-BSXe9w-228" value="" style="shape=tableRow;horizontal=0;startSize=0;swimlaneHead=0;swimlaneBody=0;top=0;left=0;bottom=0;right=0;collapsible=0;dropTarget=0;fillColor=none;points=[[0,0.5],[1,0.5]];portConstraint=eastwest;" vertex="1" parent="i6ytHLpOtppgZ-BSXe9w-215">
          <mxGeometry y="160" width="350" height="40" as="geometry" />
        </mxCell>
        <mxCell id="i6ytHLpOtppgZ-BSXe9w-229" value="4" style="shape=partialRectangle;html=1;whiteSpace=wrap;connectable=0;overflow=hidden;fillColor=none;top=0;left=0;bottom=0;right=0;pointerEvents=1;" vertex="1" parent="i6ytHLpOtppgZ-BSXe9w-228">
          <mxGeometry width="110" height="40" as="geometry">
            <mxRectangle width="110" height="40" as="alternateBounds" />
          </mxGeometry>
        </mxCell>
        <mxCell id="i6ytHLpOtppgZ-BSXe9w-230" value="" style="shape=partialRectangle;html=1;whiteSpace=wrap;connectable=0;overflow=hidden;fillColor=none;top=0;left=0;bottom=0;right=0;pointerEvents=1;" vertex="1" parent="i6ytHLpOtppgZ-BSXe9w-228">
          <mxGeometry x="110" width="240" height="40" as="geometry">
            <mxRectangle width="240" height="40" as="alternateBounds" />
          </mxGeometry>
        </mxCell>
      </root>
    </mxGraphModel>
  </diagram>
</mxfile>
